<?xml version="1.0" encoding="UTF-8" standalone="no"?>
<!DOCTYPE svg PUBLIC "-//W3C//DTD SVG 1.1//EN"
 "http://www.w3.org/Graphics/SVG/1.1/DTD/svg11.dtd">
<!-- Generated by graphviz version 2.47.0 (20210316.0004)
 -->
<!-- Title: dependencies Pages: 1 -->
<svg width="504pt" height="211pt"
 viewBox="0.00 0.00 504.00 211.00" xmlns="http://www.w3.org/2000/svg" xmlns:xlink="http://www.w3.org/1999/xlink">
<g id="graph0" class="graph" transform="scale(1 1) rotate(0) translate(4 207)">
<title>dependencies</title>
<polygon fill="white" stroke="transparent" points="-4,4 -4,-207 500,-207 500,4 -4,4"/>
<text text-anchor="start" x="227.01" y="-42.4" font-family="sans-serif" font-weight="bold" font-size="14.00">Legend</text>
<polygon fill="#ffffb3" stroke="transparent" points="14,-10 14,-30 34,-30 34,-10 14,-10"/>
<text text-anchor="start" x="37.63" y="-15.4" font-family="sans-serif" font-size="14.00"> &#160;Declarations</text>
<polygon fill="#8dd3c7" stroke="transparent" points="127,-10 127,-30 147,-30 147,-10 127,-10"/>
<text text-anchor="start" x="150.73" y="-15.4" font-family="sans-serif" font-size="14.00"> &#160;Module</text>
<polygon fill="#80b1d3" stroke="transparent" points="213,-10 213,-30 233,-30 233,-10 213,-10"/>
<text text-anchor="start" x="236.78" y="-15.4" font-family="sans-serif" font-size="14.00"> &#160;Bootstrap</text>
<polygon fill="#fdb462" stroke="transparent" points="310,-10 310,-30 330,-30 330,-10 310,-10"/>
<text text-anchor="start" x="333.67" y="-15.4" font-family="sans-serif" font-size="14.00"> &#160;Providers</text>
<polygon fill="#fb8072" stroke="transparent" points="406,-10 406,-30 426,-30 426,-10 406,-10"/>
<text text-anchor="start" x="429.73" y="-15.4" font-family="sans-serif" font-size="14.00"> &#160;Exports</text>
<g id="clust1" class="cluster">
<title>cluster_IntroduceStepPageModule</title>
<polygon fill="none" stroke="black" stroke-dasharray="1,5" points="54,-70 54,-195 442,-195 442,-70 54,-70"/>
</g>
<g id="clust2" class="cluster">
<title>cluster_IntroduceStepPageModule_declarations</title>
<polygon fill="none" stroke="black" points="296,-78 296,-130 434,-130 434,-78 296,-78"/>
</g>
<g id="clust4" class="cluster">
<title>cluster_IntroduceStepPageModule_imports</title>
<polygon fill="none" stroke="black" points="62,-78 62,-130 288,-130 288,-78 62,-78"/>
</g>
<!-- IntroduceStepPage -->
<g id="node1" class="node">
<title>IntroduceStepPage</title>
<polygon fill="#ffffb3" stroke="black" points="425.74,-122 304.26,-122 304.26,-86 425.74,-86 425.74,-122"/>
<text text-anchor="middle" x="365" y="-99.8" font-family="Times,serif" font-size="14.00">IntroduceStepPage</text>
</g>
<!-- IntroduceStepPageModule -->
<g id="node2" class="node">
<title>IntroduceStepPageModule</title>
<polygon fill="#8dd3c7" stroke="black" points="345.79,-187 342.79,-191 321.79,-191 318.79,-187 180.21,-187 180.21,-151 345.79,-151 345.79,-187"/>
<text text-anchor="middle" x="263" y="-164.8" font-family="Times,serif" font-size="14.00">IntroduceStepPageModule</text>
</g>
<!-- IntroduceStepPage&#45;&gt;IntroduceStepPageModule -->
<g id="edge1" class="edge">
<title>IntroduceStepPage&#45;&gt;IntroduceStepPageModule</title>
<path fill="none" stroke="black" d="M324.89,-122.11C324.89,-122.11 324.89,-140.99 324.89,-140.99"/>
<polygon fill="black" stroke="black" points="321.39,-140.99 324.89,-150.99 328.39,-140.99 321.39,-140.99"/>
</g>
<!-- IntroduceStepPageRoutingModule -->
<g id="node3" class="node">
<title>IntroduceStepPageRoutingModule</title>
<polygon fill="#8dd3c7" stroke="black" points="280.41,-122 277.41,-126 256.41,-126 253.41,-122 69.59,-122 69.59,-86 280.41,-86 280.41,-122"/>
<text text-anchor="middle" x="175" y="-99.8" font-family="Times,serif" font-size="14.00">IntroduceStepPageRoutingModule</text>
</g>
<!-- IntroduceStepPageRoutingModule&#45;&gt;IntroduceStepPageModule -->
<g id="edge2" class="edge">
<title>IntroduceStepPageRoutingModule&#45;&gt;IntroduceStepPageModule</title>
<path fill="none" stroke="black" d="M230.28,-122.11C230.28,-122.11 230.28,-140.99 230.28,-140.99"/>
<polygon fill="black" stroke="black" points="226.78,-140.99 230.28,-150.99 233.78,-140.99 226.78,-140.99"/>
</g>
</g>
</svg>
