<?xml version="1.0" encoding="UTF-8" standalone="no"?>
<!DOCTYPE svg PUBLIC "-//W3C//DTD SVG 1.1//EN"
 "http://www.w3.org/Graphics/SVG/1.1/DTD/svg11.dtd">
<!-- Generated by graphviz version 2.47.0 (20210316.0004)
 -->
<!-- Title: dependencies Pages: 1 -->
<svg width="4530pt" height="284pt"
 viewBox="0.00 0.00 4530.00 284.00" xmlns="http://www.w3.org/2000/svg" xmlns:xlink="http://www.w3.org/1999/xlink">
<g id="graph0" class="graph" transform="scale(1 1) rotate(0) translate(4 280)">
<title>dependencies</title>
<polygon fill="white" stroke="transparent" points="-4,4 -4,-280 4526,-280 4526,4 -4,4"/>
<text text-anchor="start" x="2240.01" y="-42.4" font-family="sans-serif" font-weight="bold" font-size="14.00">Legend</text>
<polygon fill="#ffffb3" stroke="transparent" points="2027,-10 2027,-30 2047,-30 2047,-10 2027,-10"/>
<text text-anchor="start" x="2050.63" y="-15.4" font-family="sans-serif" font-size="14.00"> &#160;Declarations</text>
<polygon fill="#8dd3c7" stroke="transparent" points="2140,-10 2140,-30 2160,-30 2160,-10 2140,-10"/>
<text text-anchor="start" x="2163.73" y="-15.4" font-family="sans-serif" font-size="14.00"> &#160;Module</text>
<polygon fill="#80b1d3" stroke="transparent" points="2226,-10 2226,-30 2246,-30 2246,-10 2226,-10"/>
<text text-anchor="start" x="2249.78" y="-15.4" font-family="sans-serif" font-size="14.00"> &#160;Bootstrap</text>
<polygon fill="#fdb462" stroke="transparent" points="2323,-10 2323,-30 2343,-30 2343,-10 2323,-10"/>
<text text-anchor="start" x="2346.67" y="-15.4" font-family="sans-serif" font-size="14.00"> &#160;Providers</text>
<polygon fill="#fb8072" stroke="transparent" points="2419,-10 2419,-30 2439,-30 2439,-10 2419,-10"/>
<text text-anchor="start" x="2442.73" y="-15.4" font-family="sans-serif" font-size="14.00"> &#160;Exports</text>
<g id="clust1" class="cluster">
<title>cluster_AppModule</title>
<polygon fill="none" stroke="black" stroke-dasharray="1,5" points="8,-70 8,-268 298,-268 298,-70 8,-70"/>
</g>
<g id="clust2" class="cluster">
<title>cluster_AppModule_declarations</title>
<polygon fill="none" stroke="black" points="168,-78 168,-130 290,-130 290,-78 168,-78"/>
</g>
<g id="clust4" class="cluster">
<title>cluster_AppModule_imports</title>
<polygon fill="none" stroke="black" points="16,-78 16,-130 160,-130 160,-78 16,-78"/>
</g>
<g id="clust6" class="cluster">
<title>cluster_AppModule_bootstrap</title>
<polygon fill="none" stroke="black" points="96,-208 96,-260 220,-260 220,-208 96,-208"/>
</g>
<g id="clust14" class="cluster">
<title>cluster_CreateAccountPageModule</title>
<polygon fill="none" stroke="black" stroke-dasharray="1,5" points="306,-70 306,-195 706,-195 706,-70 306,-70"/>
</g>
<g id="clust15" class="cluster">
<title>cluster_CreateAccountPageModule_declarations</title>
<polygon fill="none" stroke="black" points="554,-78 554,-130 698,-130 698,-78 554,-78"/>
</g>
<g id="clust17" class="cluster">
<title>cluster_CreateAccountPageModule_imports</title>
<polygon fill="none" stroke="black" points="314,-78 314,-130 546,-130 546,-78 314,-78"/>
</g>
<g id="clust27" class="cluster">
<title>cluster_EnjoyYourDayPageModule</title>
<polygon fill="none" stroke="black" stroke-dasharray="1,5" points="714,-70 714,-195 1116,-195 1116,-70 714,-70"/>
</g>
<g id="clust28" class="cluster">
<title>cluster_EnjoyYourDayPageModule_declarations</title>
<polygon fill="none" stroke="black" points="964,-78 964,-130 1108,-130 1108,-78 964,-78"/>
</g>
<g id="clust30" class="cluster">
<title>cluster_EnjoyYourDayPageModule_imports</title>
<polygon fill="none" stroke="black" points="722,-78 722,-130 956,-130 956,-78 722,-78"/>
</g>
<g id="clust40" class="cluster">
<title>cluster_FanSpeedPageModule</title>
<polygon fill="none" stroke="black" stroke-dasharray="1,5" points="1124,-70 1124,-195 1466,-195 1466,-70 1124,-70"/>
</g>
<g id="clust41" class="cluster">
<title>cluster_FanSpeedPageModule_declarations</title>
<polygon fill="none" stroke="black" points="1344,-78 1344,-130 1458,-130 1458,-78 1344,-78"/>
</g>
<g id="clust43" class="cluster">
<title>cluster_FanSpeedPageModule_imports</title>
<polygon fill="none" stroke="black" points="1132,-78 1132,-130 1336,-130 1336,-78 1132,-78"/>
</g>
<g id="clust53" class="cluster">
<title>cluster_ForgetPasswordPageModule</title>
<polygon fill="none" stroke="black" stroke-dasharray="1,5" points="1474,-70 1474,-195 1886,-195 1886,-70 1474,-70"/>
</g>
<g id="clust54" class="cluster">
<title>cluster_ForgetPasswordPageModule_declarations</title>
<polygon fill="none" stroke="black" points="1728,-78 1728,-130 1878,-130 1878,-78 1728,-78"/>
</g>
<g id="clust56" class="cluster">
<title>cluster_ForgetPasswordPageModule_imports</title>
<polygon fill="none" stroke="black" points="1482,-78 1482,-130 1720,-130 1720,-78 1482,-78"/>
</g>
<g id="clust66" class="cluster">
<title>cluster_HomePageModule</title>
<polygon fill="none" stroke="black" stroke-dasharray="1,5" points="1894,-70 1894,-195 2194,-195 2194,-70 1894,-70"/>
</g>
<g id="clust67" class="cluster">
<title>cluster_HomePageModule_declarations</title>
<polygon fill="none" stroke="black" points="2092,-78 2092,-130 2186,-130 2186,-78 2092,-78"/>
</g>
<g id="clust69" class="cluster">
<title>cluster_HomePageModule_imports</title>
<polygon fill="none" stroke="black" points="1902,-78 1902,-130 2084,-130 2084,-78 1902,-78"/>
</g>
<g id="clust79" class="cluster">
<title>cluster_HowDoYouFeelPageModule</title>
<polygon fill="none" stroke="black" stroke-dasharray="1,5" points="2202,-70 2202,-195 2618,-195 2618,-70 2202,-70"/>
</g>
<g id="clust80" class="cluster">
<title>cluster_HowDoYouFeelPageModule_declarations</title>
<polygon fill="none" stroke="black" points="2458,-78 2458,-130 2610,-130 2610,-78 2458,-78"/>
</g>
<g id="clust82" class="cluster">
<title>cluster_HowDoYouFeelPageModule_imports</title>
<polygon fill="none" stroke="black" points="2210,-78 2210,-130 2450,-130 2450,-78 2210,-78"/>
</g>
<g id="clust92" class="cluster">
<title>cluster_IntroduceStepPageModule</title>
<polygon fill="none" stroke="black" stroke-dasharray="1,5" points="2626,-70 2626,-195 3014,-195 3014,-70 2626,-70"/>
</g>
<g id="clust93" class="cluster">
<title>cluster_IntroduceStepPageModule_declarations</title>
<polygon fill="none" stroke="black" points="2868,-78 2868,-130 3006,-130 3006,-78 2868,-78"/>
</g>
<g id="clust95" class="cluster">
<title>cluster_IntroduceStepPageModule_imports</title>
<polygon fill="none" stroke="black" points="2634,-78 2634,-130 2860,-130 2860,-78 2634,-78"/>
</g>
<g id="clust105" class="cluster">
<title>cluster_IsThisBetterPageModule</title>
<polygon fill="none" stroke="black" stroke-dasharray="1,5" points="3022,-70 3022,-195 3392,-195 3392,-70 3022,-70"/>
</g>
<g id="clust106" class="cluster">
<title>cluster_IsThisBetterPageModule_declarations</title>
<polygon fill="none" stroke="black" points="3256,-78 3256,-130 3384,-130 3384,-78 3256,-78"/>
</g>
<g id="clust108" class="cluster">
<title>cluster_IsThisBetterPageModule_imports</title>
<polygon fill="none" stroke="black" points="3030,-78 3030,-130 3248,-130 3248,-78 3030,-78"/>
</g>
<g id="clust118" class="cluster">
<title>cluster_SetNewPasswordPageModule</title>
<polygon fill="none" stroke="black" stroke-dasharray="1,5" points="3400,-70 3400,-195 3828,-195 3828,-70 3400,-70"/>
</g>
<g id="clust119" class="cluster">
<title>cluster_SetNewPasswordPageModule_declarations</title>
<polygon fill="none" stroke="black" points="3662,-78 3662,-130 3820,-130 3820,-78 3662,-78"/>
</g>
<g id="clust121" class="cluster">
<title>cluster_SetNewPasswordPageModule_imports</title>
<polygon fill="none" stroke="black" points="3408,-78 3408,-130 3654,-130 3654,-78 3408,-78"/>
</g>
<g id="clust131" class="cluster">
<title>cluster_SignInPageModule</title>
<polygon fill="none" stroke="black" stroke-dasharray="1,5" points="3836,-70 3836,-195 4142,-195 4142,-70 3836,-70"/>
</g>
<g id="clust132" class="cluster">
<title>cluster_SignInPageModule_declarations</title>
<polygon fill="none" stroke="black" points="4038,-78 4038,-130 4134,-130 4134,-78 4038,-78"/>
</g>
<g id="clust134" class="cluster">
<title>cluster_SignInPageModule_imports</title>
<polygon fill="none" stroke="black" points="3844,-78 3844,-130 4030,-130 4030,-78 3844,-78"/>
</g>
<g id="clust144" class="cluster">
<title>cluster_VerifyCodePageModule</title>
<polygon fill="none" stroke="black" stroke-dasharray="1,5" points="4150,-70 4150,-195 4514,-195 4514,-70 4150,-70"/>
</g>
<g id="clust145" class="cluster">
<title>cluster_VerifyCodePageModule_declarations</title>
<polygon fill="none" stroke="black" points="4380,-78 4380,-130 4506,-130 4506,-78 4380,-78"/>
</g>
<g id="clust147" class="cluster">
<title>cluster_VerifyCodePageModule_imports</title>
<polygon fill="none" stroke="black" points="4158,-78 4158,-130 4372,-130 4372,-78 4158,-78"/>
</g>
<!-- AppComponent -->
<g id="node1" class="node">
<title>AppComponent</title>
<polygon fill="#ffffb3" stroke="black" points="281.94,-122 176.06,-122 176.06,-86 281.94,-86 281.94,-122"/>
<text text-anchor="middle" x="229" y="-99.8" font-family="Times,serif" font-size="14.00">AppComponent</text>
</g>
<!-- AppModule -->
<g id="node2" class="node">
<title>AppModule</title>
<polygon fill="#8dd3c7" stroke="black" points="199.66,-187 196.66,-191 175.66,-191 172.66,-187 116.34,-187 116.34,-151 199.66,-151 199.66,-187"/>
<text text-anchor="middle" x="158" y="-164.8" font-family="Times,serif" font-size="14.00">AppModule</text>
</g>
<!-- AppComponent&#45;&gt;AppModule -->
<g id="edge1" class="edge">
<title>AppComponent&#45;&gt;AppModule</title>
<path fill="none" stroke="black" d="M188.05,-122.11C188.05,-122.11 188.05,-140.99 188.05,-140.99"/>
<polygon fill="black" stroke="black" points="184.55,-140.99 188.05,-150.99 191.55,-140.99 184.55,-140.99"/>
</g>
<!-- AppComponent  -->
<g id="node4" class="node">
<title>AppComponent </title>
<polygon fill="#80b1d3" stroke="black" points="212.44,-252 103.56,-252 103.56,-216 212.44,-216 212.44,-252"/>
<text text-anchor="middle" x="158" y="-229.8" font-family="Times,serif" font-size="14.00">AppComponent </text>
</g>
<!-- AppModule&#45;&gt;AppComponent  -->
<g id="edge3" class="edge">
<title>AppModule&#45;&gt;AppComponent </title>
<path fill="none" stroke="black" stroke-dasharray="1,5" d="M158,-187.11C158,-187.11 158,-205.99 158,-205.99"/>
<polygon fill="black" stroke="black" points="154.5,-205.99 158,-215.99 161.5,-205.99 154.5,-205.99"/>
</g>
<!-- AppRoutingModule -->
<g id="node3" class="node">
<title>AppRoutingModule</title>
<polygon fill="#8dd3c7" stroke="black" points="152.27,-122 149.27,-126 128.27,-126 125.27,-122 23.73,-122 23.73,-86 152.27,-86 152.27,-122"/>
<text text-anchor="middle" x="88" y="-99.8" font-family="Times,serif" font-size="14.00">AppRoutingModule</text>
</g>
<!-- AppRoutingModule&#45;&gt;AppModule -->
<g id="edge2" class="edge">
<title>AppRoutingModule&#45;&gt;AppModule</title>
<path fill="none" stroke="black" d="M134.28,-122.11C134.28,-122.11 134.28,-140.99 134.28,-140.99"/>
<polygon fill="black" stroke="black" points="130.78,-140.99 134.28,-150.99 137.78,-140.99 130.78,-140.99"/>
</g>
<!-- CreateAccountPage -->
<g id="node5" class="node">
<title>CreateAccountPage</title>
<polygon fill="#ffffb3" stroke="black" points="689.67,-122 562.33,-122 562.33,-86 689.67,-86 689.67,-122"/>
<text text-anchor="middle" x="626" y="-99.8" font-family="Times,serif" font-size="14.00">CreateAccountPage</text>
</g>
<!-- CreateAccountPageModule -->
<g id="node6" class="node">
<title>CreateAccountPageModule</title>
<polygon fill="#8dd3c7" stroke="black" points="606.22,-187 603.22,-191 582.22,-191 579.22,-187 435.78,-187 435.78,-151 606.22,-151 606.22,-187"/>
<text text-anchor="middle" x="521" y="-164.8" font-family="Times,serif" font-size="14.00">CreateAccountPageModule</text>
</g>
<!-- CreateAccountPage&#45;&gt;CreateAccountPageModule -->
<g id="edge4" class="edge">
<title>CreateAccountPage&#45;&gt;CreateAccountPageModule</title>
<path fill="none" stroke="black" d="M584.39,-122.11C584.39,-122.11 584.39,-140.99 584.39,-140.99"/>
<polygon fill="black" stroke="black" points="580.89,-140.99 584.39,-150.99 587.89,-140.99 580.89,-140.99"/>
</g>
<!-- CreateAccountPageRoutingModule -->
<g id="node7" class="node">
<title>CreateAccountPageRoutingModule</title>
<polygon fill="#8dd3c7" stroke="black" points="537.84,-122 534.84,-126 513.84,-126 510.84,-122 322.16,-122 322.16,-86 537.84,-86 537.84,-122"/>
<text text-anchor="middle" x="430" y="-99.8" font-family="Times,serif" font-size="14.00">CreateAccountPageRoutingModule</text>
</g>
<!-- CreateAccountPageRoutingModule&#45;&gt;CreateAccountPageModule -->
<g id="edge5" class="edge">
<title>CreateAccountPageRoutingModule&#45;&gt;CreateAccountPageModule</title>
<path fill="none" stroke="black" d="M486.78,-122.11C486.78,-122.11 486.78,-140.99 486.78,-140.99"/>
<polygon fill="black" stroke="black" points="483.28,-140.99 486.78,-150.99 490.28,-140.99 483.28,-140.99"/>
</g>
<!-- EnjoyYourDayPage -->
<g id="node8" class="node">
<title>EnjoyYourDayPage</title>
<polygon fill="#ffffb3" stroke="black" points="1100.24,-122 971.76,-122 971.76,-86 1100.24,-86 1100.24,-122"/>
<text text-anchor="middle" x="1036" y="-99.8" font-family="Times,serif" font-size="14.00">EnjoyYourDayPage</text>
</g>
<!-- EnjoyYourDayPageModule -->
<g id="node9" class="node">
<title>EnjoyYourDayPageModule</title>
<polygon fill="#8dd3c7" stroke="black" points="1016.29,-187 1013.29,-191 992.29,-191 989.29,-187 843.71,-187 843.71,-151 1016.29,-151 1016.29,-187"/>
<text text-anchor="middle" x="930" y="-164.8" font-family="Times,serif" font-size="14.00">EnjoyYourDayPageModule</text>
</g>
<!-- EnjoyYourDayPage&#45;&gt;EnjoyYourDayPageModule -->
<g id="edge6" class="edge">
<title>EnjoyYourDayPage&#45;&gt;EnjoyYourDayPageModule</title>
<path fill="none" stroke="black" d="M993.89,-122.11C993.89,-122.11 993.89,-140.99 993.89,-140.99"/>
<polygon fill="black" stroke="black" points="990.39,-140.99 993.89,-150.99 997.39,-140.99 990.39,-140.99"/>
</g>
<!-- EnjoyYourDayPageRoutingModule -->
<g id="node10" class="node">
<title>EnjoyYourDayPageRoutingModule</title>
<polygon fill="#8dd3c7" stroke="black" points="947.91,-122 944.91,-126 923.91,-126 920.91,-122 730.09,-122 730.09,-86 947.91,-86 947.91,-122"/>
<text text-anchor="middle" x="839" y="-99.8" font-family="Times,serif" font-size="14.00">EnjoyYourDayPageRoutingModule</text>
</g>
<!-- EnjoyYourDayPageRoutingModule&#45;&gt;EnjoyYourDayPageModule -->
<g id="edge7" class="edge">
<title>EnjoyYourDayPageRoutingModule&#45;&gt;EnjoyYourDayPageModule</title>
<path fill="none" stroke="black" d="M895.78,-122.11C895.78,-122.11 895.78,-140.99 895.78,-140.99"/>
<polygon fill="black" stroke="black" points="892.28,-140.99 895.78,-150.99 899.28,-140.99 892.28,-140.99"/>
</g>
<!-- FanSpeedPage -->
<g id="node11" class="node">
<title>FanSpeedPage</title>
<polygon fill="#ffffb3" stroke="black" points="1450.42,-122 1351.58,-122 1351.58,-86 1450.42,-86 1450.42,-122"/>
<text text-anchor="middle" x="1401" y="-99.8" font-family="Times,serif" font-size="14.00">FanSpeedPage</text>
</g>
<!-- FanSpeedPageModule -->
<g id="node12" class="node">
<title>FanSpeedPageModule</title>
<polygon fill="#8dd3c7" stroke="black" points="1380.97,-187 1377.97,-191 1356.97,-191 1353.97,-187 1239.03,-187 1239.03,-151 1380.97,-151 1380.97,-187"/>
<text text-anchor="middle" x="1310" y="-164.8" font-family="Times,serif" font-size="14.00">FanSpeedPageModule</text>
</g>
<!-- FanSpeedPage&#45;&gt;FanSpeedPageModule -->
<g id="edge8" class="edge">
<title>FanSpeedPage&#45;&gt;FanSpeedPageModule</title>
<path fill="none" stroke="black" d="M1366.39,-122.11C1366.39,-122.11 1366.39,-140.99 1366.39,-140.99"/>
<polygon fill="black" stroke="black" points="1362.89,-140.99 1366.39,-150.99 1369.89,-140.99 1362.89,-140.99"/>
</g>
<!-- FanSpeedPageRoutingModule -->
<g id="node13" class="node">
<title>FanSpeedPageRoutingModule</title>
<polygon fill="#8dd3c7" stroke="black" points="1327.59,-122 1324.59,-126 1303.59,-126 1300.59,-122 1140.41,-122 1140.41,-86 1327.59,-86 1327.59,-122"/>
<text text-anchor="middle" x="1234" y="-99.8" font-family="Times,serif" font-size="14.00">FanSpeedPageRoutingModule</text>
</g>
<!-- FanSpeedPageRoutingModule&#45;&gt;FanSpeedPageModule -->
<g id="edge9" class="edge">
<title>FanSpeedPageRoutingModule&#45;&gt;FanSpeedPageModule</title>
<path fill="none" stroke="black" d="M1283.28,-122.11C1283.28,-122.11 1283.28,-140.99 1283.28,-140.99"/>
<polygon fill="black" stroke="black" points="1279.78,-140.99 1283.28,-150.99 1286.78,-140.99 1279.78,-140.99"/>
</g>
<!-- ForgetPasswordPage -->
<g id="node14" class="node">
<title>ForgetPasswordPage</title>
<polygon fill="#ffffb3" stroke="black" points="1869.91,-122 1736.09,-122 1736.09,-86 1869.91,-86 1869.91,-122"/>
<text text-anchor="middle" x="1803" y="-99.8" font-family="Times,serif" font-size="14.00">ForgetPasswordPage</text>
</g>
<!-- ForgetPasswordPageModule -->
<g id="node15" class="node">
<title>ForgetPasswordPageModule</title>
<polygon fill="#8dd3c7" stroke="black" points="1783.46,-187 1780.46,-191 1759.46,-191 1756.46,-187 1606.54,-187 1606.54,-151 1783.46,-151 1783.46,-187"/>
<text text-anchor="middle" x="1695" y="-164.8" font-family="Times,serif" font-size="14.00">ForgetPasswordPageModule</text>
</g>
<!-- ForgetPasswordPage&#45;&gt;ForgetPasswordPageModule -->
<g id="edge10" class="edge">
<title>ForgetPasswordPage&#45;&gt;ForgetPasswordPageModule</title>
<path fill="none" stroke="black" d="M1759.89,-122.11C1759.89,-122.11 1759.89,-140.99 1759.89,-140.99"/>
<polygon fill="black" stroke="black" points="1756.39,-140.99 1759.89,-150.99 1763.39,-140.99 1756.39,-140.99"/>
</g>
<!-- ForgetPasswordPageRoutingModule -->
<g id="node16" class="node">
<title>ForgetPasswordPageRoutingModule</title>
<polygon fill="#8dd3c7" stroke="black" points="1712.08,-122 1709.08,-126 1688.08,-126 1685.08,-122 1489.92,-122 1489.92,-86 1712.08,-86 1712.08,-122"/>
<text text-anchor="middle" x="1601" y="-99.8" font-family="Times,serif" font-size="14.00">ForgetPasswordPageRoutingModule</text>
</g>
<!-- ForgetPasswordPageRoutingModule&#45;&gt;ForgetPasswordPageModule -->
<g id="edge11" class="edge">
<title>ForgetPasswordPageRoutingModule&#45;&gt;ForgetPasswordPageModule</title>
<path fill="none" stroke="black" d="M1659.28,-122.11C1659.28,-122.11 1659.28,-140.99 1659.28,-140.99"/>
<polygon fill="black" stroke="black" points="1655.78,-140.99 1659.28,-150.99 1662.78,-140.99 1655.78,-140.99"/>
</g>
<!-- HomePage -->
<g id="node17" class="node">
<title>HomePage</title>
<polygon fill="#ffffb3" stroke="black" points="2177.92,-122 2100.08,-122 2100.08,-86 2177.92,-86 2177.92,-122"/>
<text text-anchor="middle" x="2139" y="-99.8" font-family="Times,serif" font-size="14.00">HomePage</text>
</g>
<!-- HomePageModule -->
<g id="node18" class="node">
<title>HomePageModule</title>
<polygon fill="#8dd3c7" stroke="black" points="2119.47,-187 2116.47,-191 2095.47,-191 2092.47,-187 1998.53,-187 1998.53,-151 2119.47,-151 2119.47,-187"/>
<text text-anchor="middle" x="2059" y="-164.8" font-family="Times,serif" font-size="14.00">HomePageModule</text>
</g>
<!-- HomePage&#45;&gt;HomePageModule -->
<g id="edge12" class="edge">
<title>HomePage&#45;&gt;HomePageModule</title>
<path fill="none" stroke="black" d="M2109.89,-122.11C2109.89,-122.11 2109.89,-140.99 2109.89,-140.99"/>
<polygon fill="black" stroke="black" points="2106.39,-140.99 2109.89,-150.99 2113.39,-140.99 2106.39,-140.99"/>
</g>
<!-- HomePageRoutingModule -->
<g id="node19" class="node">
<title>HomePageRoutingModule</title>
<polygon fill="#8dd3c7" stroke="black" points="2076.09,-122 2073.09,-126 2052.09,-126 2049.09,-122 1909.91,-122 1909.91,-86 2076.09,-86 2076.09,-122"/>
<text text-anchor="middle" x="1993" y="-99.8" font-family="Times,serif" font-size="14.00">HomePageRoutingModule</text>
</g>
<!-- HomePageRoutingModule&#45;&gt;HomePageModule -->
<g id="edge13" class="edge">
<title>HomePageRoutingModule&#45;&gt;HomePageModule</title>
<path fill="none" stroke="black" d="M2037.28,-122.11C2037.28,-122.11 2037.28,-140.99 2037.28,-140.99"/>
<polygon fill="black" stroke="black" points="2033.78,-140.99 2037.28,-150.99 2040.78,-140.99 2033.78,-140.99"/>
</g>
<!-- HowDoYouFeelPage -->
<g id="node20" class="node">
<title>HowDoYouFeelPage</title>
<polygon fill="#ffffb3" stroke="black" points="2601.74,-122 2466.26,-122 2466.26,-86 2601.74,-86 2601.74,-122"/>
<text text-anchor="middle" x="2534" y="-99.8" font-family="Times,serif" font-size="14.00">HowDoYouFeelPage</text>
</g>
<!-- HowDoYouFeelPageModule -->
<g id="node21" class="node">
<title>HowDoYouFeelPageModule</title>
<polygon fill="#8dd3c7" stroke="black" points="2514.79,-187 2511.79,-191 2490.79,-191 2487.79,-187 2335.21,-187 2335.21,-151 2514.79,-151 2514.79,-187"/>
<text text-anchor="middle" x="2425" y="-164.8" font-family="Times,serif" font-size="14.00">HowDoYouFeelPageModule</text>
</g>
<!-- HowDoYouFeelPage&#45;&gt;HowDoYouFeelPageModule -->
<g id="edge14" class="edge">
<title>HowDoYouFeelPage&#45;&gt;HowDoYouFeelPageModule</title>
<path fill="none" stroke="black" d="M2490.39,-122.11C2490.39,-122.11 2490.39,-140.99 2490.39,-140.99"/>
<polygon fill="black" stroke="black" points="2486.89,-140.99 2490.39,-150.99 2493.89,-140.99 2486.89,-140.99"/>
</g>
<!-- HowDoYouFeelPageRoutingModule -->
<g id="node22" class="node">
<title>HowDoYouFeelPageRoutingModule</title>
<polygon fill="#8dd3c7" stroke="black" points="2442.41,-122 2439.41,-126 2418.41,-126 2415.41,-122 2217.59,-122 2217.59,-86 2442.41,-86 2442.41,-122"/>
<text text-anchor="middle" x="2330" y="-99.8" font-family="Times,serif" font-size="14.00">HowDoYouFeelPageRoutingModule</text>
</g>
<!-- HowDoYouFeelPageRoutingModule&#45;&gt;HowDoYouFeelPageModule -->
<g id="edge15" class="edge">
<title>HowDoYouFeelPageRoutingModule&#45;&gt;HowDoYouFeelPageModule</title>
<path fill="none" stroke="black" d="M2388.78,-122.11C2388.78,-122.11 2388.78,-140.99 2388.78,-140.99"/>
<polygon fill="black" stroke="black" points="2385.28,-140.99 2388.78,-150.99 2392.28,-140.99 2385.28,-140.99"/>
</g>
<!-- IntroduceStepPage -->
<g id="node23" class="node">
<title>IntroduceStepPage</title>
<polygon fill="#ffffb3" stroke="black" points="2997.74,-122 2876.26,-122 2876.26,-86 2997.74,-86 2997.74,-122"/>
<text text-anchor="middle" x="2937" y="-99.8" font-family="Times,serif" font-size="14.00">IntroduceStepPage</text>
</g>
<!-- IntroduceStepPageModule -->
<g id="node24" class="node">
<title>IntroduceStepPageModule</title>
<polygon fill="#8dd3c7" stroke="black" points="2917.79,-187 2914.79,-191 2893.79,-191 2890.79,-187 2752.21,-187 2752.21,-151 2917.79,-151 2917.79,-187"/>
<text text-anchor="middle" x="2835" y="-164.8" font-family="Times,serif" font-size="14.00">IntroduceStepPageModule</text>
</g>
<!-- IntroduceStepPage&#45;&gt;IntroduceStepPageModule -->
<g id="edge16" class="edge">
<title>IntroduceStepPage&#45;&gt;IntroduceStepPageModule</title>
<path fill="none" stroke="black" d="M2896.89,-122.11C2896.89,-122.11 2896.89,-140.99 2896.89,-140.99"/>
<polygon fill="black" stroke="black" points="2893.39,-140.99 2896.89,-150.99 2900.39,-140.99 2893.39,-140.99"/>
</g>
<!-- IntroduceStepPageRoutingModule -->
<g id="node25" class="node">
<title>IntroduceStepPageRoutingModule</title>
<polygon fill="#8dd3c7" stroke="black" points="2852.41,-122 2849.41,-126 2828.41,-126 2825.41,-122 2641.59,-122 2641.59,-86 2852.41,-86 2852.41,-122"/>
<text text-anchor="middle" x="2747" y="-99.8" font-family="Times,serif" font-size="14.00">IntroduceStepPageRoutingModule</text>
</g>
<!-- IntroduceStepPageRoutingModule&#45;&gt;IntroduceStepPageModule -->
<g id="edge17" class="edge">
<title>IntroduceStepPageRoutingModule&#45;&gt;IntroduceStepPageModule</title>
<path fill="none" stroke="black" d="M2802.28,-122.11C2802.28,-122.11 2802.28,-140.99 2802.28,-140.99"/>
<polygon fill="black" stroke="black" points="2798.78,-140.99 2802.28,-150.99 2805.78,-140.99 2798.78,-140.99"/>
</g>
<!-- IsThisBetterPage -->
<g id="node26" class="node">
<title>IsThisBetterPage</title>
<polygon fill="#ffffb3" stroke="black" points="3376.41,-122 3263.59,-122 3263.59,-86 3376.41,-86 3376.41,-122"/>
<text text-anchor="middle" x="3320" y="-99.8" font-family="Times,serif" font-size="14.00">IsThisBetterPage</text>
</g>
<!-- IsThisBetterPageModule -->
<g id="node27" class="node">
<title>IsThisBetterPageModule</title>
<polygon fill="#8dd3c7" stroke="black" points="3299.96,-187 3296.96,-191 3275.96,-191 3272.96,-187 3144.04,-187 3144.04,-151 3299.96,-151 3299.96,-187"/>
<text text-anchor="middle" x="3222" y="-164.8" font-family="Times,serif" font-size="14.00">IsThisBetterPageModule</text>
</g>
<!-- IsThisBetterPage&#45;&gt;IsThisBetterPageModule -->
<g id="edge18" class="edge">
<title>IsThisBetterPage&#45;&gt;IsThisBetterPageModule</title>
<path fill="none" stroke="black" d="M3281.89,-122.11C3281.89,-122.11 3281.89,-140.99 3281.89,-140.99"/>
<polygon fill="black" stroke="black" points="3278.39,-140.99 3281.89,-150.99 3285.39,-140.99 3278.39,-140.99"/>
</g>
<!-- IsThisBetterPageRoutingModule -->
<g id="node28" class="node">
<title>IsThisBetterPageRoutingModule</title>
<polygon fill="#8dd3c7" stroke="black" points="3239.58,-122 3236.58,-126 3215.58,-126 3212.58,-122 3038.42,-122 3038.42,-86 3239.58,-86 3239.58,-122"/>
<text text-anchor="middle" x="3139" y="-99.8" font-family="Times,serif" font-size="14.00">IsThisBetterPageRoutingModule</text>
</g>
<!-- IsThisBetterPageRoutingModule&#45;&gt;IsThisBetterPageModule -->
<g id="edge19" class="edge">
<title>IsThisBetterPageRoutingModule&#45;&gt;IsThisBetterPageModule</title>
<path fill="none" stroke="black" d="M3191.78,-122.11C3191.78,-122.11 3191.78,-140.99 3191.78,-140.99"/>
<polygon fill="black" stroke="black" points="3188.28,-140.99 3191.78,-150.99 3195.28,-140.99 3188.28,-140.99"/>
</g>
<!-- SetNewPasswordPage -->
<g id="node29" class="node">
<title>SetNewPasswordPage</title>
<polygon fill="#ffffb3" stroke="black" points="3811.68,-122 3670.32,-122 3670.32,-86 3811.68,-86 3811.68,-122"/>
<text text-anchor="middle" x="3741" y="-99.8" font-family="Times,serif" font-size="14.00">SetNewPasswordPage</text>
</g>
<!-- SetNewPasswordPageModule -->
<g id="node30" class="node">
<title>SetNewPasswordPageModule</title>
<polygon fill="#8dd3c7" stroke="black" points="3721.23,-187 3718.23,-191 3697.23,-191 3694.23,-187 3536.77,-187 3536.77,-151 3721.23,-151 3721.23,-187"/>
<text text-anchor="middle" x="3629" y="-164.8" font-family="Times,serif" font-size="14.00">SetNewPasswordPageModule</text>
</g>
<!-- SetNewPasswordPage&#45;&gt;SetNewPasswordPageModule -->
<g id="edge20" class="edge">
<title>SetNewPasswordPage&#45;&gt;SetNewPasswordPageModule</title>
<path fill="none" stroke="black" d="M3695.89,-122.11C3695.89,-122.11 3695.89,-140.99 3695.89,-140.99"/>
<polygon fill="black" stroke="black" points="3692.39,-140.99 3695.89,-150.99 3699.39,-140.99 3692.39,-140.99"/>
</g>
<!-- SetNewPasswordPageRoutingModule -->
<g id="node31" class="node">
<title>SetNewPasswordPageRoutingModule</title>
<polygon fill="#8dd3c7" stroke="black" points="3645.85,-122 3642.85,-126 3621.85,-126 3618.85,-122 3416.15,-122 3416.15,-86 3645.85,-86 3645.85,-122"/>
<text text-anchor="middle" x="3531" y="-99.8" font-family="Times,serif" font-size="14.00">SetNewPasswordPageRoutingModule</text>
</g>
<!-- SetNewPasswordPageRoutingModule&#45;&gt;SetNewPasswordPageModule -->
<g id="edge21" class="edge">
<title>SetNewPasswordPageRoutingModule&#45;&gt;SetNewPasswordPageModule</title>
<path fill="none" stroke="black" d="M3591.28,-122.11C3591.28,-122.11 3591.28,-140.99 3591.28,-140.99"/>
<polygon fill="black" stroke="black" points="3587.78,-140.99 3591.28,-150.99 3594.78,-140.99 3587.78,-140.99"/>
</g>
<!-- SignInPage -->
<g id="node32" class="node">
<title>SignInPage</title>
<polygon fill="#ffffb3" stroke="black" points="4126.05,-122 4045.95,-122 4045.95,-86 4126.05,-86 4126.05,-122"/>
<text text-anchor="middle" x="4086" y="-99.8" font-family="Times,serif" font-size="14.00">SignInPage</text>
</g>
<!-- SignInPageModule -->
<g id="node33" class="node">
<title>SignInPageModule</title>
<polygon fill="#8dd3c7" stroke="black" points="4066.1,-187 4063.1,-191 4042.1,-191 4039.1,-187 3941.9,-187 3941.9,-151 4066.1,-151 4066.1,-187"/>
<text text-anchor="middle" x="4004" y="-164.8" font-family="Times,serif" font-size="14.00">SignInPageModule</text>
</g>
<!-- SignInPage&#45;&gt;SignInPageModule -->
<g id="edge22" class="edge">
<title>SignInPage&#45;&gt;SignInPageModule</title>
<path fill="none" stroke="black" d="M4055.89,-122.11C4055.89,-122.11 4055.89,-140.99 4055.89,-140.99"/>
<polygon fill="black" stroke="black" points="4052.39,-140.99 4055.89,-150.99 4059.39,-140.99 4052.39,-140.99"/>
</g>
<!-- SignInPageRoutingModule -->
<g id="node34" class="node">
<title>SignInPageRoutingModule</title>
<polygon fill="#8dd3c7" stroke="black" points="4021.71,-122 4018.71,-126 3997.71,-126 3994.71,-122 3852.29,-122 3852.29,-86 4021.71,-86 4021.71,-122"/>
<text text-anchor="middle" x="3937" y="-99.8" font-family="Times,serif" font-size="14.00">SignInPageRoutingModule</text>
</g>
<!-- SignInPageRoutingModule&#45;&gt;SignInPageModule -->
<g id="edge23" class="edge">
<title>SignInPageRoutingModule&#45;&gt;SignInPageModule</title>
<path fill="none" stroke="black" d="M3981.78,-122.11C3981.78,-122.11 3981.78,-140.99 3981.78,-140.99"/>
<polygon fill="black" stroke="black" points="3978.28,-140.99 3981.78,-150.99 3985.28,-140.99 3978.28,-140.99"/>
</g>
<!-- VerifyCodePage -->
<g id="node35" class="node">
<title>VerifyCodePage</title>
<polygon fill="#ffffb3" stroke="black" points="4497.8,-122 4388.2,-122 4388.2,-86 4497.8,-86 4497.8,-122"/>
<text text-anchor="middle" x="4443" y="-99.8" font-family="Times,serif" font-size="14.00">VerifyCodePage</text>
</g>
<!-- VerifyCodePageModule -->
<g id="node36" class="node">
<title>VerifyCodePageModule</title>
<polygon fill="#8dd3c7" stroke="black" points="4423.35,-187 4420.35,-191 4399.35,-191 4396.35,-187 4270.65,-187 4270.65,-151 4423.35,-151 4423.35,-187"/>
<text text-anchor="middle" x="4347" y="-164.8" font-family="Times,serif" font-size="14.00">VerifyCodePageModule</text>
</g>
<!-- VerifyCodePage&#45;&gt;VerifyCodePageModule -->
<g id="edge24" class="edge">
<title>VerifyCodePage&#45;&gt;VerifyCodePageModule</title>
<path fill="none" stroke="black" d="M4405.89,-122.11C4405.89,-122.11 4405.89,-140.99 4405.89,-140.99"/>
<polygon fill="black" stroke="black" points="4402.39,-140.99 4405.89,-150.99 4409.39,-140.99 4402.39,-140.99"/>
</g>
<!-- VerifyCodePageRoutingModule -->
<g id="node37" class="node">
<title>VerifyCodePageRoutingModule</title>
<polygon fill="#8dd3c7" stroke="black" points="4363.96,-122 4360.96,-126 4339.96,-126 4336.96,-122 4166.04,-122 4166.04,-86 4363.96,-86 4363.96,-122"/>
<text text-anchor="middle" x="4265" y="-99.8" font-family="Times,serif" font-size="14.00">VerifyCodePageRoutingModule</text>
</g>
<!-- VerifyCodePageRoutingModule&#45;&gt;VerifyCodePageModule -->
<g id="edge25" class="edge">
<title>VerifyCodePageRoutingModule&#45;&gt;VerifyCodePageModule</title>
<path fill="none" stroke="black" d="M4317.28,-122.11C4317.28,-122.11 4317.28,-140.99 4317.28,-140.99"/>
<polygon fill="black" stroke="black" points="4313.78,-140.99 4317.28,-150.99 4320.78,-140.99 4313.78,-140.99"/>
</g>
</g>
</svg>
